<svg width="3" height="13" viewBox="0 0 3 13" fill="none" xmlns="http://www.w3.org/2000/svg">
<path d="M2.28409 0.363636L2.13636 8.65341H0.5625L0.414773 0.363636H2.28409ZM1.35227 12.108C1.03788 12.108 0.768939 11.9981 0.545455 11.7784C0.32197 11.5549 0.212121 11.286 0.215909 10.9716C0.212121 10.661 0.32197 10.3958 0.545455 10.1761C0.768939 9.95265 1.03788 9.84091 1.35227 9.84091C1.65909 9.84091 1.92424 9.95265 2.14773 10.1761C2.37121 10.3958 2.48485 10.661 2.48864 10.9716C2.48485 11.1799 2.42992 11.3712 2.32386 11.5455C2.22159 11.7159 2.08523 11.8523 1.91477 11.9545C1.74432 12.0568 1.55682 12.108 1.35227 12.108Z" fill="black"/>
</svg>
